<svg width="360" height="280" viewBox="0 0 360 280" xmlns="http://www.w3.org/2000/svg">
  <defs>
    <radialGradient id="radA" cx="50%" cy="45%" r="65%">
      <stop offset="0%" stop-color="#a855f7" stop-opacity="0.95"/>
      <stop offset="55%" stop-color="#6366f1" stop-opacity="0.65"/>
      <stop offset="100%" stop-color="#0ea5e9" stop-opacity="0.4"/>
    </radialGradient>
    <linearGradient id="panel" x1="0%" y1="0%" x2="100%" y2="100%">
      <stop offset="0%" stop-color="#eef2ff"/>
      <stop offset="100%" stop-color="#e0f2fe"/>
    </linearGradient>
  </defs>
  <rect width="360" height="280" rx="36" fill="url(#panel)" opacity="0.9"/>
  <circle cx="180" cy="130" r="96" fill="url(#radA)" opacity="0.9"/>
  <circle cx="180" cy="130" r="54" fill="white" opacity="0.9"/>
  <path d="M180 96c18 0 34 12 39 30h-24c-4-8-10-12-15-12s-11 4-15 12h-24c5-18 21-30 39-30z" fill="#a855f7" opacity="0.8"/>
  <rect x="96" y="200" width="168" height="40" rx="20" fill="white" opacity="0.85"/>
  <rect x="112" y="212" width="70" height="16" rx="8" fill="#6366f1" opacity="0.8"/>
  <rect x="190" y="212" width="56" height="16" rx="8" fill="#38bdf8" opacity="0.7"/>
  <circle cx="115" cy="88" r="12" fill="#818cf8" opacity="0.6"/>
  <circle cx="252" cy="82" r="10" fill="#38bdf8" opacity="0.5"/>
  <circle cx="284" cy="172" r="14" fill="#a855f7" opacity="0.4"/>
</svg>
