<svg width="360" height="280" viewBox="0 0 360 280" xmlns="http://www.w3.org/2000/svg">
  <defs>
    <linearGradient id="collabBg" x1="0%" y1="0%" x2="100%" y2="100%">
      <stop offset="0%" stop-color="#eef2ff"/>
      <stop offset="100%" stop-color="#dbeafe"/>
    </linearGradient>
    <radialGradient id="cursorGlow" cx="50%" cy="50%" r="60%">
      <stop offset="0%" stop-color="#38bdf8" stop-opacity="0.9"/>
      <stop offset="100%" stop-color="#6366f1" stop-opacity="0.3"/>
    </radialGradient>
  </defs>
  <rect width="360" height="280" rx="36" fill="url(#collabBg)"/>
  <rect x="48" y="64" width="264" height="160" rx="26" fill="white" opacity="0.92"/>
  <rect x="72" y="92" width="216" height="104" rx="20" fill="#f1f5f9"/>
  <rect x="92" y="112" width="96" height="64" rx="16" fill="#c7d2fe" opacity="0.9"/>
  <rect x="204" y="112" width="72" height="18" rx="9" fill="#6366f1" opacity="0.75"/>
  <rect x="204" y="138" width="84" height="14" rx="7" fill="#818cf8" opacity="0.6"/>
  <rect x="204" y="160" width="96" height="12" rx="6" fill="#a5b4fc" opacity="0.55"/>
  <circle cx="124" cy="208" r="18" fill="#f472b6" opacity="0.35"/>
  <circle cx="156" cy="214" r="12" fill="#38bdf8" opacity="0.45"/>
  <circle cx="248" cy="184" r="26" fill="url(#cursorGlow)" opacity="0.85"/>
  <path d="M248 172l14 24-10-2-4 10-12-32z" fill="#0f172a" opacity="0.8"/>
  <circle cx="108" cy="104" r="10" fill="#f97316" opacity="0.5"/>
  <circle cx="280" cy="96" r="9" fill="#a855f7" opacity="0.5"/>
</svg>
