<svg width="360" height="280" viewBox="0 0 360 280" xmlns="http://www.w3.org/2000/svg">
  <defs>
    <linearGradient id="learnBg" x1="0%" y1="0%" x2="0%" y2="100%">
      <stop offset="0%" stop-color="#f0f9ff"/>
      <stop offset="100%" stop-color="#ede9fe"/>
    </linearGradient>
    <linearGradient id="badge" x1="0%" y1="0%" x2="100%" y2="100%">
      <stop offset="0%" stop-color="#6366f1"/>
      <stop offset="100%" stop-color="#0ea5e9"/>
    </linearGradient>
  </defs>
  <rect width="360" height="280" rx="36" fill="url(#learnBg)"/>
  <rect x="60" y="60" width="240" height="160" rx="24" fill="white" opacity="0.92"/>
  <rect x="80" y="80" width="200" height="44" rx="16" fill="#e0f2fe" opacity="0.95"/>
  <rect x="96" y="92" width="120" height="12" rx="6" fill="#60a5fa" opacity="0.8"/>
  <rect x="80" y="140" width="200" height="64" rx="20" fill="#eef2ff" opacity="0.9"/>
  <rect x="96" y="156" width="88" height="12" rx="6" fill="#818cf8"/>
  <rect x="96" y="176" width="140" height="12" rx="6" fill="#c7d2fe"/>
  <circle cx="256" cy="180" r="28" fill="url(#badge)" opacity="0.75"/>
  <path d="M256 168l10 18h-20l10-18z" fill="#f8fafc"/>
  <rect x="124" y="208" width="112" height="22" rx="11" fill="#e0e7ff"/>
  <rect x="138" y="214" width="64" height="10" rx="5" fill="#6366f1" opacity="0.8"/>
  <circle cx="112" cy="108" r="10" fill="#a855f7" opacity="0.4"/>
  <circle cx="272" cy="104" r="8" fill="#38bdf8" opacity="0.45"/>
</svg>
