<svg width="360" height="280" viewBox="0 0 360 280" xmlns="http://www.w3.org/2000/svg">
  <defs>
    <linearGradient id="brandBg" x1="0%" y1="0%" x2="100%" y2="100%">
      <stop offset="0%" stop-color="#fdf2f8"/>
      <stop offset="100%" stop-color="#eef2ff"/>
    </linearGradient>
    <linearGradient id="brandAccent" x1="0%" y1="0%" x2="100%" y2="0%">
      <stop offset="0%" stop-color="#ec4899"/>
      <stop offset="100%" stop-color="#6366f1"/>
    </linearGradient>
  </defs>
  <rect width="360" height="280" rx="36" fill="url(#brandBg)"/>
  <rect x="56" y="72" width="248" height="152" rx="28" fill="white" opacity="0.92"/>
  <rect x="80" y="96" width="200" height="36" rx="18" fill="#fce7f3"/>
  <rect x="96" y="108" width="96" height="12" rx="6" fill="#ec4899" opacity="0.8"/>
  <rect x="80" y="148" width="120" height="56" rx="20" fill="#c7d2fe" opacity="0.85"/>
  <circle cx="112" cy="176" r="18" fill="url(#brandAccent)" opacity="0.8"/>
  <rect x="212" y="140" width="72" height="16" rx="8" fill="#6366f1" opacity="0.75"/>
  <rect x="212" y="164" width="88" height="14" rx="7" fill="#818cf8" opacity="0.6"/>
  <rect x="212" y="186" width="64" height="12" rx="6" fill="#a855f7" opacity="0.6"/>
  <rect x="96" y="212" width="168" height="24" rx="12" fill="#fce7f3"/>
  <rect x="108" y="218" width="74" height="12" rx="6" fill="#ec4899" opacity="0.75"/>
  <rect x="190" y="218" width="56" height="12" rx="6" fill="#6366f1" opacity="0.65"/>
  <circle cx="140" cy="96" r="12" fill="#f472b6" opacity="0.5"/>
  <circle cx="260" cy="102" r="9" fill="#38bdf8" opacity="0.45"/>
</svg>
